<svg xmlns="http://www.w3.org/2000/svg" xmlns:xlink="http://www.w3.org/1999/xlink" x="0px" y="0px" width="14px" height="14px" viewBox="0 0 14 14" style="enable-background:new 0 0 14 14;" xml:space="preserve">
<path d="M14,13.28l-3.22-3.22c2.03-2.41,1.94-6-0.32-8.27C9.26,0.6,7.69,0,6.13,0S2.99,0.6,1.79,1.79c-2.39,2.39-2.39,6.27,0,8.66
	c1.2,1.2,2.76,1.79,4.33,1.79c1.41,0,2.8-0.51,3.93-1.47L13.28,14L14,13.28z M2.52,9.73c-1.99-1.99-1.99-5.23,0-7.22
	c0.96-0.96,2.25-1.49,3.61-1.49s2.65,0.53,3.61,1.49c1.99,1.99,1.99,5.23,0,7.22c-0.96,0.96-2.25,1.5-3.61,1.5S3.48,10.7,2.52,9.73z
	"></path>
</svg>